<svg xmlns="http://www.w3.org/2000/svg" xmlns:xlink="http://www.w3.org/1999/xlink" contentStyleType="text/css" data-diagram-type="DESCRIPTION" height="606px" preserveAspectRatio="none" style="width:1132px;height:606px;background:#FFFFFF;" version="1.1" viewBox="0 0 1132 606" width="1132px" zoomAndPan="magnify"><defs/><g><!--cluster Sistema de Turismo--><g class="cluster" data-entity="Sistema de Turismo" data-source-line="7" data-uid="ent0005" id="cluster_Sistema de Turismo"><rect fill="none" height="523" rx="2.5" ry="2.5" style="stroke:#181818;stroke-width:1;" width="868" x="258" y="77.53"/><text fill="#000000" font-family="sans-serif" font-size="14" font-weight="bold" lengthAdjust="spacing" textLength="156.4609" x="613.7695" y="92.5251">Sistema de Turismo</text></g><!--entity mapa--><g class="entity" data-entity="mapa" data-source-line="9" data-uid="ent0006" id="entity_mapa"><ellipse cx="382.8391" cy="203.2978" fill="#F1F1F1" rx="76.8391" ry="17.7678" style="stroke:#181818;stroke-width:0.5;"/><text fill="#000000" font-family="sans-serif" font-size="14" lengthAdjust="spacing" textLength="123.1631" x="321.2576" y="207.9463">Ver ruta en mapa</text></g><!--entity precios--><g class="entity" data-entity="precios" data-source-line="10" data-uid="ent0007" id="entity_precios"><ellipse cx="382.9576" cy="274.7215" fill="#F1F1F1" rx="76.4576" ry="17.6915" style="stroke:#181818;stroke-width:0.5;"/><text fill="#000000" font-family="sans-serif" font-size="14" lengthAdjust="spacing" textLength="122.2471" x="321.834" y="279.3699">Consultar precios</text></g><!--entity recomendados--><g class="entity" data-entity="recomendados" data-source-line="11" data-uid="ent0008" id="entity_recomendados"><ellipse cx="383.0023" cy="351.7305" fill="#F1F1F1" rx="109.0023" ry="24.2005" style="stroke:#181818;stroke-width:0.5;"/><text fill="#000000" font-family="sans-serif" font-size="14" lengthAdjust="spacing" textLength="195.7197" x="285.1424" y="356.3789">Ver destinos recomendados</text></g><!--entity horario--><g class="entity" data-entity="horario" data-source-line="12" data-uid="ent0009" id="entity_horario"><ellipse cx="1002.9988" cy="136.3298" fill="#F1F1F1" rx="106.9988" ry="23.7998" style="stroke:#181818;stroke-width:0.5;"/><text fill="#000000" font-family="sans-serif" font-size="14" lengthAdjust="spacing" textLength="191.3721" x="907.3127" y="140.9782">Seleccionar fecha y horario</text></g><!--entity reserva--><g class="entity" data-entity="reserva" data-source-line="13" data-uid="ent0010" id="entity_reserva"><ellipse cx="693.8933" cy="131.3087" fill="#F1F1F1" rx="76.8933" ry="17.7787" style="stroke:#181818;stroke-width:0.5;"/><text fill="#000000" font-family="sans-serif" font-size="14" lengthAdjust="spacing" textLength="123.293" x="632.2468" y="135.9571">Reservar un cupo</text></g><!--entity visu--><g class="entity" data-entity="visu" data-source-line="14" data-uid="ent0011" id="entity_visu"><ellipse cx="383.1046" cy="131.3509" fill="#F1F1F1" rx="82.1046" ry="18.8209" style="stroke:#181818;stroke-width:0.5;"/><text fill="#000000" font-family="sans-serif" font-size="14" lengthAdjust="spacing" textLength="135.6113" x="315.2989" y="135.9994">Visualizar recorrido</text></g><!--entity login--><g class="entity" data-entity="login" data-source-line="15" data-uid="ent0012" id="entity_login"><ellipse cx="382.8711" cy="426.3042" fill="#F1F1F1" rx="64.3711" ry="15.2742" style="stroke:#181818;stroke-width:0.5;"/><text fill="#000000" font-family="sans-serif" font-size="14" lengthAdjust="spacing" textLength="91.793" x="336.9746" y="430.9527">Iniciar sesi&#243;n</text></g><!--entity register--><g class="entity" data-entity="register" data-source-line="16" data-uid="ent0013" id="entity_register"><ellipse cx="382.9967" cy="491.5536" fill="#F1F1F1" rx="59.4967" ry="14.5236" style="stroke:#181818;stroke-width:0.5;"/><text fill="#000000" font-family="sans-serif" font-size="14" lengthAdjust="spacing" textLength="79.8984" x="343.0475" y="496.2021">Registrarse</text></g><!--entity detalles--><g class="entity" data-entity="detalles" data-source-line="17" data-uid="ent0014" id="entity_detalles"><ellipse cx="382.7597" cy="562.4819" fill="#F1F1F1" rx="95.2597" ry="21.4519" style="stroke:#181818;stroke-width:0.5;"/><text fill="#000000" font-family="sans-serif" font-size="14" lengthAdjust="spacing" textLength="165.5527" x="299.9833" y="567.1304">Ver detalles del destino</text></g><!--entity Turista--><g class="entity" data-entity="Turista" data-source-line="3" data-uid="ent0002" id="entity_Turista"><ellipse cx="108.6826" cy="102.03" fill="#F1F1F1" rx="8" ry="8" style="stroke:#181818;stroke-width:0.5;"/><path d="M108.6826,110.03 L108.6826,137.03 M95.6826,118.03 L121.6826,118.03 M108.6826,137.03 L95.6826,152.03 M108.6826,137.03 L121.6826,152.03" fill="none" style="stroke:#181818;stroke-width:0.5;"/><text fill="#000000" font-family="sans-serif" font-size="14" lengthAdjust="spacing" textLength="135.3652" x="41" y="166.5251">Turista con reserva</text></g><!--entity Viajero--><g class="entity" data-entity="Viajero" data-source-line="4" data-uid="ent0003" id="entity_Viajero"><ellipse cx="108.3477" cy="234.03" fill="#F1F1F1" rx="8" ry="8" style="stroke:#181818;stroke-width:0.5;"/><path d="M108.3477,242.03 L108.3477,269.03 M95.3477,250.03 L121.3477,250.03 M108.3477,269.03 L95.3477,284.03 M108.3477,269.03 L121.3477,284.03" fill="none" style="stroke:#181818;stroke-width:0.5;"/><text fill="#000000" font-family="sans-serif" font-size="14" lengthAdjust="spacing" textLength="204.6953" x="6" y="298.5251">Viajero con Bajo Presupuesto</text></g><!--entity Indeciso--><g class="entity" data-entity="Indeciso" data-source-line="5" data-uid="ent0004" id="entity_Indeciso"><ellipse cx="108.4155" cy="345.03" fill="#F1F1F1" rx="8" ry="8" style="stroke:#181818;stroke-width:0.5;"/><path d="M108.4155,353.03 L108.4155,380.03 M95.4155,361.03 L121.4155,361.03 M108.4155,380.03 L95.4155,395.03 M108.4155,380.03 L121.4155,395.03" fill="none" style="stroke:#181818;stroke-width:0.5;"/><text fill="#000000" font-family="sans-serif" font-size="14" lengthAdjust="spacing" textLength="110.8311" x="53" y="409.5251">Turista Indeciso</text></g><!--entity Usuario--><g class="entity" data-entity="Usuario" data-source-line="30" data-uid="ent0023" id="entity_Usuario"><ellipse cx="108.6021" cy="459.03" fill="#F1F1F1" rx="8" ry="8" style="stroke:#181818;stroke-width:0.5;"/><path d="M108.6021,467.03 L108.6021,494.03 M95.6021,475.03 L121.6021,475.03 M108.6021,494.03 L95.6021,509.03 M108.6021,494.03 L121.6021,509.03" fill="none" style="stroke:#181818;stroke-width:0.5;"/><text fill="#000000" font-family="sans-serif" font-size="14" lengthAdjust="spacing" textLength="53.2041" x="82" y="523.5251">Usuario</text></g><!--link reserva to horario--><g class="link" data-entity-1="reserva" data-entity-2="horario" data-source-line="20" data-uid="lnk15" id="link_reserva_horario"><path d="M770.89,132.77 C808.62,133.38 848.8408,134.0324 890.0108,134.7024" fill="none" id="reserva-to-horario" style="stroke:#181818;stroke-width:1;"/><polygon fill="#181818" points="896.01,134.8,887.0763,130.6541,891.0107,134.7186,886.9461,138.653,896.01,134.8" style="stroke:#181818;stroke-width:1;"/><text fill="#000000" font-family="sans-serif" font-size="13" lengthAdjust="spacing" textLength="63.0068" x="802" y="129.5969">&#171;include&#187;</text></g><!--link visu to reserva--><g class="link" data-entity-1="visu" data-entity-2="reserva" data-source-line="21" data-uid="lnk16" id="link_visu_reserva"><path d="M465.19,131.53 C512.12,131.53 564.81,131.53 610.87,131.53" fill="none" id="visu-to-reserva" style="stroke:#181818;stroke-width:1;"/><polygon fill="#181818" points="616.87,131.53,607.87,127.53,611.87,131.53,607.87,135.53,616.87,131.53" style="stroke:#181818;stroke-width:1;"/><text fill="#000000" font-family="sans-serif" font-size="13" lengthAdjust="spacing" textLength="63.0068" x="523" y="127.5969">&#171;include&#187;</text></g><!--link Turista to mapa--><g class="link" data-entity-1="Turista" data-entity-2="mapa" data-source-line="24" data-uid="lnk17" id="link_Turista_mapa"><path d="M176.16,149.14 C224.06,161.8 281.8491,177.0672 325.5991,188.6272" fill="none" id="Turista-to-mapa" style="stroke:#181818;stroke-width:1;"/><polygon fill="#181818" points="331.4,190.16,323.7205,183.9936,326.5659,188.8827,321.6768,191.7281,331.4,190.16" style="stroke:#181818;stroke-width:1;"/></g><!--link Viajero to precios--><g class="link" data-entity-1="Viajero" data-entity-2="precios" data-source-line="25" data-uid="lnk18" id="link_Viajero_precios"><path d="M211.36,267.64 C243.25,268.93 271.8448,270.0894 301.4948,271.2794" fill="none" id="Viajero-to-precios" style="stroke:#181818;stroke-width:1;"/><polygon fill="#181818" points="307.49,271.52,298.6577,267.1623,302.494,271.3195,298.3368,275.1559,307.49,271.52" style="stroke:#181818;stroke-width:1;"/></g><!--link Indeciso to recomendados--><g class="link" data-entity-1="Indeciso" data-entity-2="recomendados" data-source-line="26" data-uid="lnk19" id="link_Indeciso_recomendados"><path d="M164.32,369.9 C197.73,367.08 235.4912,363.894 274.9912,360.564" fill="none" id="Indeciso-to-recomendados" style="stroke:#181818;stroke-width:1;"/><polygon fill="#181818" points="280.97,360.06,271.6658,356.8302,275.9877,360.48,272.3378,364.8019,280.97,360.06" style="stroke:#181818;stroke-width:1;"/></g><!--link Turista to horario--><g class="link" data-entity-1="Turista" data-entity-2="horario" data-source-line="27" data-uid="lnk20" id="link_Turista_horario"><path d="M172.66,93.48 C196.1,81.4 223.45,69.62 250,63.53 C500.91,6 803.2942,77.9199 933.4642,115.3999" fill="none" id="Turista-to-horario" style="stroke:#181818;stroke-width:1;"/><polygon fill="#181818" points="939.23,117.06,931.6881,110.726,934.4252,115.6765,929.4746,118.4136,939.23,117.06" style="stroke:#181818;stroke-width:1;"/></g><!--link Turista to reserva--><g class="link" data-entity-1="Turista" data-entity-2="reserva" data-source-line="28" data-uid="lnk21" id="link_Turista_reserva"><path d="M176.34,110.17 C199.42,103.81 225.61,97.69 250,94.53 C398.63,75.29 439.51,79.9 587,106.53 C604.96,109.77 618.6063,112.7172 635.9063,116.8772" fill="none" id="Turista-to-reserva" style="stroke:#181818;stroke-width:1;"/><polygon fill="#181818" points="641.74,118.28,633.9246,112.2867,636.8786,117.111,632.0542,120.065,641.74,118.28" style="stroke:#181818;stroke-width:1;"/></g><!--link Turista to visu--><g class="link" data-entity-1="Turista" data-entity-2="visu" data-source-line="29" data-uid="lnk22" id="link_Turista_visu"><path d="M176.16,131.53 C213.82,131.53 255.17,131.53 294.96,131.53" fill="none" id="Turista-to-visu" style="stroke:#181818;stroke-width:1;"/><polygon fill="#181818" points="300.96,131.53,291.96,127.53,295.96,131.53,291.96,135.53,300.96,131.53" style="stroke:#181818;stroke-width:1;"/></g><!--link Usuario to login--><g class="link" data-entity-1="Usuario" data-entity-2="login" data-source-line="30" data-uid="lnk24" id="link_Usuario_login"><path d="M135.14,482.7 C181.04,472.25 272.0295,451.551 329.8295,438.401" fill="none" id="Usuario-to-login" style="stroke:#181818;stroke-width:1;"/><polygon fill="#181818" points="335.68,437.07,326.0169,435.1662,330.8046,438.1792,327.7916,442.9669,335.68,437.07" style="stroke:#181818;stroke-width:1;"/></g><!--link Usuario to detalles--><g class="link" data-entity-1="Usuario" data-entity-2="detalles" data-source-line="31" data-uid="lnk25" id="link_Usuario_detalles"><path d="M135.14,495.49 C177.4,506.97 257.0397,528.5975 315.4397,544.4575" fill="none" id="Usuario-to-detalles" style="stroke:#181818;stroke-width:1;"/><polygon fill="#181818" points="321.23,546.03,313.5929,539.8111,316.4048,544.7196,311.4963,547.5314,321.23,546.03" style="stroke:#181818;stroke-width:1;"/></g><!--link Usuario to register--><g class="link" data-entity-1="Usuario" data-entity-2="register" data-source-line="32" data-uid="lnk26" id="link_Usuario_register"><path d="M135.14,488.81 C177.93,489.28 258.9804,490.1743 317.4104,490.8143" fill="none" id="Usuario-to-register" style="stroke:#181818;stroke-width:1;"/><polygon fill="#181818" points="323.41,490.88,314.4544,486.7817,318.4103,490.8252,314.3667,494.7812,323.41,490.88" style="stroke:#181818;stroke-width:1;"/></g><!--link Usuario to recomendados--><g class="link" data-entity-1="Usuario" data-entity-2="recomendados" data-source-line="33" data-uid="lnk27" id="link_Usuario_recomendados"><path d="M135.07,475.68 C156.19,464.6 186.57,447.57 211,429.53 C229.98,415.52 229.61,405.39 250,393.53 C267.67,383.25 282.4432,376.9915 301.9332,370.7815" fill="none" id="Usuario-to-recomendados" style="stroke:#181818;stroke-width:1;"/><polygon fill="#181818" points="307.65,368.96,297.8604,367.8811,302.886,370.4779,300.2891,375.5035,307.65,368.96" style="stroke:#181818;stroke-width:1;"/></g><!--link Viajero to recomendados--><g class="link" data-entity-1="Viajero" data-entity-2="recomendados" data-source-line="34" data-uid="lnk28" id="link_Viajero_recomendados"><path d="M211.15,296.92 C224.22,301.18 237.42,305.47 250,309.53 C272.77,316.88 292.0615,323.0437 314.1315,330.0537" fill="none" id="Viajero-to-recomendados" style="stroke:#181818;stroke-width:1;"/><polygon fill="#181818" points="319.85,331.87,312.4832,325.3332,315.0846,330.3564,310.0614,332.9578,319.85,331.87" style="stroke:#181818;stroke-width:1;"/></g><!--link Turista to recomendados--><g class="link" data-entity-1="Turista" data-entity-2="recomendados" data-source-line="35" data-uid="lnk29" id="link_Turista_recomendados"><path d="M171.31,169.61 C185.67,180.54 199.97,193.38 211,207.53 C232.93,235.65 230.19,247.88 242,281.53 C246.29,293.74 240.99,300.24 250,309.53 C262.31,322.21 272.8024,328.9991 289.5424,335.1891" fill="none" id="Turista-to-recomendados" style="stroke:#181818;stroke-width:1;"/><polygon fill="#181818" points="295.17,337.27,288.1159,330.3969,290.4803,335.5359,285.3413,337.9003,295.17,337.27" style="stroke:#181818;stroke-width:1;"/></g><!--SRC=[XP8xJWCn48PxdsAK2efS04Kfe4g72AItxCbc8iTU-H494AVY25oCyIiuI8YjPl_v_C_3DhYF41rucWuHD7bKaPmLGgheF2oUawSG9IXdmMD0VvOBa06wthaToIDwLxXxUNJmo7IQ4uReoe46_FRTM8sAGcNwZn2v3MadWx3OCeSd2HfhqHEpxq80VpSxzE0Jsw25avpbRNR9GKq_E1kIYTB3p8RaGict-CT1SvDaNU01bJkXrL8tT1GglqM3YezRDjsZEaXuXOFpqfCh9rfSuQUwC0_9WagpQvv5REKf96deZPbSotlIbJfpeY8RIueu7p3GrwSjMUCciht6n0lYeW6RVVv7FuuNfJ4OE31zreBsn7zrIhwr3SlbkWy9Tx1QaLKcQLol2vNRBaZ7hv4F8Vh5PwZSL7yvMUXNqnz2inekOJpUTprgVRkZLdRvmelEFMUXZZKgbrMCucMLr-BGpTZxdssEYMy0]--></g></svg>