<svg xmlns="http://www.w3.org/2000/svg" xmlns:xlink="http://www.w3.org/1999/xlink" contentStyleType="text/css" data-diagram-type="CLASS" height="652px" preserveAspectRatio="none" style="width:384px;height:652px;background:#FFFFFF;" version="1.1" viewBox="0 0 384 652" width="384px" zoomAndPan="magnify"><defs/><g><!--class Usuario--><g class="entity" data-entity="Usuario" data-source-line="5" data-uid="ent0002" id="entity_Usuario"><rect fill="#F1F1F1" height="145.7813" rx="2.5" ry="2.5" style="stroke:#181818;stroke-width:0.5;" width="172.0977" x="7" y="47.5"/><ellipse cx="62.1968" cy="63.5" fill="#ADD1B2" rx="11" ry="11" style="stroke:#181818;stroke-width:1;"/><path d="M65.1655,69.1406 Q64.5874,69.4375 63.9468,69.5781 Q63.3062,69.7344 62.603,69.7344 Q60.103,69.7344 58.7749,68.0938 Q57.4624,66.4375 57.4624,63.3125 Q57.4624,60.1875 58.7749,58.5313 Q60.103,56.875 62.603,56.875 Q63.3062,56.875 63.9468,57.0313 Q64.603,57.1875 65.1655,57.4844 L65.1655,60.2031 Q64.5405,59.625 63.9468,59.3594 Q63.353,59.0781 62.728,59.0781 Q61.3843,59.0781 60.6968,60.1563 Q60.0093,61.2188 60.0093,63.3125 Q60.0093,65.4063 60.6968,66.4844 Q61.3843,67.5469 62.728,67.5469 Q63.353,67.5469 63.9468,67.2813 Q64.5405,67 65.1655,66.4219 L65.1655,69.1406 Z " fill="#000000"/><text fill="#000000" font-family="sans-serif" font-size="14" lengthAdjust="spacing" textLength="53.2041" x="82.6968" y="68.3467">Usuario</text><line style="stroke:#181818;stroke-width:0.5;" x1="8" x2="178.0977" y1="79.5" y2="79.5"/><rect fill="none" height="6" style="stroke:#C82930;stroke-width:1;" width="6" x="15" y="90.1484"/><text fill="#000000" font-family="sans-serif" font-size="14" lengthAdjust="spacing" textLength="40.1953" x="27" y="96.4951">id: int</text><rect fill="none" height="6" style="stroke:#C82930;stroke-width:1;" width="6" x="15" y="106.4453"/><text fill="#000000" font-family="sans-serif" font-size="14" lengthAdjust="spacing" textLength="103.6875" x="27" y="112.792">nombre: string</text><rect fill="none" height="6" style="stroke:#C82930;stroke-width:1;" width="6" x="15" y="122.7422"/><text fill="#000000" font-family="sans-serif" font-size="14" lengthAdjust="spacing" textLength="87.9648" x="27" y="129.0889">email: string</text><rect fill="none" height="6" style="stroke:#C82930;stroke-width:1;" width="6" x="15" y="139.0391"/><text fill="#000000" font-family="sans-serif" font-size="14" lengthAdjust="spacing" textLength="116.0674" x="27" y="145.3857">password: string</text><rect fill="none" height="6" style="stroke:#C82930;stroke-width:1;" width="6" x="15" y="155.3359"/><text fill="#000000" font-family="sans-serif" font-size="14" lengthAdjust="spacing" textLength="146.0977" x="27" y="161.6826">fecha_creacion: date</text><line style="stroke:#181818;stroke-width:0.5;" x1="8" x2="178.0977" y1="168.9844" y2="168.9844"/><ellipse cx="18" cy="182.6328" fill="#84BE84" rx="3" ry="3" style="stroke:#038048;stroke-width:1;"/><text fill="#000000" font-family="sans-serif" font-size="14" lengthAdjust="spacing" textLength="110.168" x="27" y="185.9795">login(): boolean</text></g><!--class Destino--><g class="entity" data-entity="Destino" data-source-line="14" data-uid="ent0003" id="entity_Destino"><rect fill="#F1F1F1" height="227.2656" rx="2.5" ry="2.5" style="stroke:#181818;stroke-width:0.5;" width="163.7305" x="214" y="7"/><ellipse cx="264.8628" cy="23" fill="#ADD1B2" rx="11" ry="11" style="stroke:#181818;stroke-width:1;"/><path d="M267.8315,28.6406 Q267.2534,28.9375 266.6128,29.0781 Q265.9722,29.2344 265.269,29.2344 Q262.769,29.2344 261.4409,27.5938 Q260.1284,25.9375 260.1284,22.8125 Q260.1284,19.6875 261.4409,18.0313 Q262.769,16.375 265.269,16.375 Q265.9722,16.375 266.6128,16.5313 Q267.269,16.6875 267.8315,16.9844 L267.8315,19.7031 Q267.2065,19.125 266.6128,18.8594 Q266.019,18.5781 265.394,18.5781 Q264.0503,18.5781 263.3628,19.6563 Q262.6753,20.7188 262.6753,22.8125 Q262.6753,24.9063 263.3628,25.9844 Q264.0503,27.0469 265.394,27.0469 Q266.019,27.0469 266.6128,26.7813 Q267.2065,26.5 267.8315,25.9219 L267.8315,28.6406 Z " fill="#000000"/><text fill="#000000" font-family="sans-serif" font-size="14" lengthAdjust="spacing" textLength="53.5049" x="285.3628" y="27.8467">Destino</text><line style="stroke:#181818;stroke-width:0.5;" x1="215" x2="376.7305" y1="39" y2="39"/><rect fill="none" height="6" style="stroke:#C82930;stroke-width:1;" width="6" x="222" y="49.6484"/><text fill="#000000" font-family="sans-serif" font-size="14" lengthAdjust="spacing" textLength="40.1953" x="234" y="55.9951">id: int</text><rect fill="none" height="6" style="stroke:#C82930;stroke-width:1;" width="6" x="222" y="65.9453"/><text fill="#000000" font-family="sans-serif" font-size="14" lengthAdjust="spacing" textLength="103.6875" x="234" y="72.292">nombre: string</text><rect fill="none" height="6" style="stroke:#C82930;stroke-width:1;" width="6" x="222" y="82.2422"/><text fill="#000000" font-family="sans-serif" font-size="14" lengthAdjust="spacing" textLength="129.4043" x="234" y="88.5889">descripcion: string</text><rect fill="none" height="6" style="stroke:#C82930;stroke-width:1;" width="6" x="222" y="98.5391"/><text fill="#000000" font-family="sans-serif" font-size="14" lengthAdjust="spacing" textLength="58.5771" x="234" y="104.8857">lat: float</text><rect fill="none" height="6" style="stroke:#C82930;stroke-width:1;" width="6" x="222" y="114.8359"/><text fill="#000000" font-family="sans-serif" font-size="14" lengthAdjust="spacing" textLength="61.9473" x="234" y="121.1826">lon: float</text><rect fill="none" height="6" style="stroke:#C82930;stroke-width:1;" width="6" x="222" y="131.1328"/><text fill="#000000" font-family="sans-serif" font-size="14" lengthAdjust="spacing" textLength="84.0273" x="234" y="137.4795">precio: float</text><rect fill="none" height="6" style="stroke:#C82930;stroke-width:1;" width="6" x="222" y="147.4297"/><text fill="#000000" font-family="sans-serif" font-size="14" lengthAdjust="spacing" textLength="101.835" x="234" y="153.7764">imagen: string</text><rect fill="none" height="6" style="stroke:#C82930;stroke-width:1;" width="6" x="222" y="163.7266"/><text fill="#000000" font-family="sans-serif" font-size="14" lengthAdjust="spacing" textLength="93.9395" x="234" y="170.0732">region: string</text><rect fill="none" height="6" style="stroke:#C82930;stroke-width:1;" width="6" x="222" y="180.0234"/><text fill="#000000" font-family="sans-serif" font-size="14" lengthAdjust="spacing" textLength="137.7305" x="234" y="186.3701">destacado: boolean</text><line style="stroke:#181818;stroke-width:0.5;" x1="215" x2="376.7305" y1="193.6719" y2="193.6719"/><ellipse cx="225" cy="207.3203" fill="#84BE84" rx="3" ry="3" style="stroke:#038048;stroke-width:1;"/><text fill="#000000" font-family="sans-serif" font-size="14" lengthAdjust="spacing" textLength="110.4961" x="234" y="210.667">verMapa(): void</text><ellipse cx="225" cy="223.6172" fill="#84BE84" rx="3" ry="3" style="stroke:#038048;stroke-width:1;"/><text fill="#000000" font-family="sans-serif" font-size="14" lengthAdjust="spacing" textLength="117.1611" x="234" y="226.9639">verPrecio(): float</text></g><!--class Horario--><g class="entity" data-entity="Horario" data-source-line="28" data-uid="ent0004" id="entity_Horario"><rect fill="#F1F1F1" height="113.1875" rx="2.5" ry="2.5" style="stroke:#181818;stroke-width:0.5;" width="124.8066" x="161.5" y="532"/><ellipse cx="195.0256" cy="548" fill="#ADD1B2" rx="11" ry="11" style="stroke:#181818;stroke-width:1;"/><path d="M197.9943,553.6406 Q197.4162,553.9375 196.7756,554.0781 Q196.135,554.2344 195.4318,554.2344 Q192.9318,554.2344 191.6037,552.5938 Q190.2912,550.9375 190.2912,547.8125 Q190.2912,544.6875 191.6037,543.0313 Q192.9318,541.375 195.4318,541.375 Q196.135,541.375 196.7756,541.5313 Q197.4318,541.6875 197.9943,541.9844 L197.9943,544.7031 Q197.3693,544.125 196.7756,543.8594 Q196.1818,543.5781 195.5568,543.5781 Q194.2131,543.5781 193.5256,544.6563 Q192.8381,545.7188 192.8381,547.8125 Q192.8381,549.9063 193.5256,550.9844 Q194.2131,552.0469 195.5568,552.0469 Q196.1818,552.0469 196.7756,551.7813 Q197.3693,551.5 197.9943,550.9219 L197.9943,553.6406 Z " fill="#000000"/><text fill="#000000" font-family="sans-serif" font-size="14" lengthAdjust="spacing" textLength="51.6387" x="213.1424" y="552.8467">Horario</text><line style="stroke:#181818;stroke-width:0.5;" x1="162.5" x2="285.3066" y1="564" y2="564"/><rect fill="none" height="6" style="stroke:#C82930;stroke-width:1;" width="6" x="169.5" y="574.6484"/><text fill="#000000" font-family="sans-serif" font-size="14" lengthAdjust="spacing" textLength="40.1953" x="181.5" y="580.9951">id: int</text><rect fill="none" height="6" style="stroke:#C82930;stroke-width:1;" width="6" x="169.5" y="590.9453"/><text fill="#000000" font-family="sans-serif" font-size="14" lengthAdjust="spacing" textLength="98.8066" x="181.5" y="597.292">destino_id: int</text><rect fill="none" height="6" style="stroke:#C82930;stroke-width:1;" width="6" x="169.5" y="607.2422"/><text fill="#000000" font-family="sans-serif" font-size="14" lengthAdjust="spacing" textLength="79.4268" x="181.5" y="613.5889">fecha: date</text><rect fill="none" height="6" style="stroke:#C82930;stroke-width:1;" width="6" x="169.5" y="623.5391"/><text fill="#000000" font-family="sans-serif" font-size="14" lengthAdjust="spacing" textLength="81.1289" x="181.5" y="629.8857">hora: string</text><line style="stroke:#181818;stroke-width:0.5;" x1="162.5" x2="285.3066" y1="637.1875" y2="637.1875"/></g><!--class Reserva--><g class="entity" data-entity="Reserva" data-source-line="35" data-uid="ent0005" id="entity_Reserva"><rect fill="#F1F1F1" height="178.375" rx="2.5" ry="2.5" style="stroke:#181818;stroke-width:0.5;" width="181.5859" x="61" y="294"/><ellipse cx="119.1089" cy="310" fill="#ADD1B2" rx="11" ry="11" style="stroke:#181818;stroke-width:1;"/><path d="M122.0776,315.6406 Q121.4995,315.9375 120.8589,316.0781 Q120.2183,316.2344 119.5151,316.2344 Q117.0151,316.2344 115.687,314.5938 Q114.3745,312.9375 114.3745,309.8125 Q114.3745,306.6875 115.687,305.0313 Q117.0151,303.375 119.5151,303.375 Q120.2183,303.375 120.8589,303.5313 Q121.5151,303.6875 122.0776,303.9844 L122.0776,306.7031 Q121.4526,306.125 120.8589,305.8594 Q120.2651,305.5781 119.6401,305.5781 Q118.2964,305.5781 117.6089,306.6563 Q116.9214,307.7188 116.9214,309.8125 Q116.9214,311.9063 117.6089,312.9844 Q118.2964,314.0469 119.6401,314.0469 Q120.2651,314.0469 120.8589,313.7813 Q121.4526,313.5 122.0776,312.9219 L122.0776,315.6406 Z " fill="#000000"/><text fill="#000000" font-family="sans-serif" font-size="14" lengthAdjust="spacing" textLength="56.8682" x="139.6089" y="314.8467">Reserva</text><line style="stroke:#181818;stroke-width:0.5;" x1="62" x2="241.5859" y1="326" y2="326"/><rect fill="none" height="6" style="stroke:#C82930;stroke-width:1;" width="6" x="69" y="336.6484"/><text fill="#000000" font-family="sans-serif" font-size="14" lengthAdjust="spacing" textLength="40.1953" x="81" y="342.9951">id: int</text><rect fill="none" height="6" style="stroke:#C82930;stroke-width:1;" width="6" x="69" y="352.9453"/><text fill="#000000" font-family="sans-serif" font-size="14" lengthAdjust="spacing" textLength="99.0254" x="81" y="359.292">usuario_id: int</text><rect fill="none" height="6" style="stroke:#C82930;stroke-width:1;" width="6" x="69" y="369.2422"/><text fill="#000000" font-family="sans-serif" font-size="14" lengthAdjust="spacing" textLength="98.8066" x="81" y="375.5889">destino_id: int</text><rect fill="none" height="6" style="stroke:#C82930;stroke-width:1;" width="6" x="69" y="385.5391"/><text fill="#000000" font-family="sans-serif" font-size="14" lengthAdjust="spacing" textLength="97.1797" x="81" y="391.8857">horario_id: int</text><rect fill="none" height="6" style="stroke:#C82930;stroke-width:1;" width="6" x="69" y="401.8359"/><text fill="#000000" font-family="sans-serif" font-size="14" lengthAdjust="spacing" textLength="96.7832" x="81" y="408.1826">estado: string</text><rect fill="none" height="6" style="stroke:#C82930;stroke-width:1;" width="6" x="69" y="418.1328"/><text fill="#000000" font-family="sans-serif" font-size="14" lengthAdjust="spacing" textLength="139.3232" x="81" y="424.4795">fecha_reserva: date</text><line style="stroke:#181818;stroke-width:0.5;" x1="62" x2="241.5859" y1="431.7813" y2="431.7813"/><ellipse cx="72" cy="445.4297" fill="#84BE84" rx="3" ry="3" style="stroke:#038048;stroke-width:1;"/><text fill="#000000" font-family="sans-serif" font-size="14" lengthAdjust="spacing" textLength="155.5859" x="81" y="448.7764">verReserva(): boolean</text><ellipse cx="72" cy="461.7266" fill="#84BE84" rx="3" ry="3" style="stroke:#038048;stroke-width:1;"/><text fill="#000000" font-family="sans-serif" font-size="14" lengthAdjust="spacing" textLength="124.0107" x="81" y="465.0732">verHorario(): void</text></g><!--link Usuario to Reserva--><g class="link" data-entity-1="Usuario" data-entity-2="Reserva" data-source-line="49" data-uid="lnk6" id="link_Usuario_Reserva"><path codeLine="49" d="M109.36,193.72 C116.38,224.74 124.66,261.27 132.04,293.87" fill="none" id="Usuario-Reserva" style="stroke:#181818;stroke-width:1;"/><text fill="#000000" font-family="sans-serif" font-size="13" lengthAdjust="spacing" textLength="8.271" x="102.5074" y="213.2445">1</text><text fill="#000000" font-family="sans-serif" font-size="13" lengthAdjust="spacing" textLength="6.5" x="124.1765" y="282.9247">*</text></g><!--link Destino to Horario--><g class="link" data-entity-1="Destino" data-entity-2="Horario" data-source-line="50" data-uid="lnk7" id="link_Destino_Horario"><path codeLine="50" d="M290.79,234.09 C286.11,303.28 277.32,393.41 261,472 C256.89,491.79 250.66,512.98 244.48,531.74" fill="none" id="Destino-Horario" style="stroke:#181818;stroke-width:1;"/><text fill="#000000" font-family="sans-serif" font-size="13" lengthAdjust="spacing" textLength="8.271" x="282.1894" y="254.2882">1</text><text fill="#000000" font-family="sans-serif" font-size="13" lengthAdjust="spacing" textLength="6.5" x="240.6526" y="520.9719">*</text></g><!--link Destino to Reserva--><g class="link" data-entity-1="Destino" data-entity-2="Reserva" data-source-line="51" data-uid="lnk8" id="link_Destino_Reserva"><path codeLine="51" d="M233.68,234.24 C222.66,254.18 211.33,274.68 200.75,293.82" fill="none" id="Destino-Reserva" style="stroke:#181818;stroke-width:1;"/><text fill="#000000" font-family="sans-serif" font-size="13" lengthAdjust="spacing" textLength="8.271" x="221.2423" y="254.4482">1</text><text fill="#000000" font-family="sans-serif" font-size="13" lengthAdjust="spacing" textLength="6.5" x="198.5765" y="282.8706">*</text></g><!--link Reserva to Horario--><g class="link" data-entity-1="Reserva" data-entity-2="Horario" data-source-line="52" data-uid="lnk9" id="link_Reserva_Horario"><path codeLine="52" d="M183.16,472.07 C190.34,492.38 197.79,513.42 204.32,531.89" fill="none" id="Reserva-Horario" style="stroke:#181818;stroke-width:1;"/><text fill="#000000" font-family="sans-serif" font-size="13" lengthAdjust="spacing" textLength="8.271" x="177.5235" y="492.4255">1</text><text fill="#000000" font-family="sans-serif" font-size="13" lengthAdjust="spacing" textLength="8.271" x="193.3157" y="520.7393">1</text></g><!--SRC=[ZLCzRy8m4DtpAqvPW5OPM3Cpi20XL6Pqs4UmvFWYsz2Xwd-l4yTfKcXJRtxtyTwzinTG_7co1UnOacQG11kkbL4C1UmjU_QgONYxMULgXgNZaBGzWYDDGYWsAD6jGlqCGIOqEWT7TqCRUdza44wXP0dA-7WnN9yjbU2yLQQA6DMez1HgGfztjdAANaXSyIGiOIkg18cUkiYhvagPvQg4CxCcDDbd4hCXvvNvlnX9JbZLH89nGACluQ8P-sBT9epkZQLGD85KZHNzQ6EfUcWTE3qAbFojlvlgJdQ73RPptLd90TntL2qSoOPXjsn_TLv68quJi7DqP6Hn3Hq6SKFV0pcoTtpQznQtVPedkqPrKx0TlHtySSysaexN76RlfOntdKBzz8DTGVvY_aySI7VFYTnyTdhP-JeFgP2_vCcQBBspKQZNyooKgfAnARGUghu0]--></g></svg>