<svg xmlns="http://www.w3.org/2000/svg" xmlns:xlink="http://www.w3.org/1999/xlink" contentStyleType="text/css" data-diagram-type="STATE" height="667px" preserveAspectRatio="none" style="width:919px;height:667px;background:#FFFFFF;" version="1.1" viewBox="0 0 919 667" width="919px" zoomAndPan="magnify"><defs/><g><ellipse cx="349.65" cy="16" fill="#222222" rx="10" ry="10" style="stroke:#222222;stroke-width:1;"/><g id="Deslogueado"><rect fill="#F1F1F1" height="50" rx="12.5" ry="12.5" style="stroke:#181818;stroke-width:0.5;" width="111.5469" x="293.65" y="103"/><line style="stroke:#181818;stroke-width:0.5;" x1="293.65" x2="405.1969" y1="129.2969" y2="129.2969"/><text fill="#000000" font-family="sans-serif" font-size="14" lengthAdjust="spacing" textLength="91.5469" x="303.65" y="120.9951">Deslogueado</text></g><g id="Logueado"><rect fill="#F1F1F1" height="50" rx="12.5" ry="12.5" style="stroke:#181818;stroke-width:0.5;" width="88.7695" x="305.15" y="230"/><line style="stroke:#181818;stroke-width:0.5;" x1="305.15" x2="393.9195" y1="256.2969" y2="256.2969"/><text fill="#000000" font-family="sans-serif" font-size="14" lengthAdjust="spacing" textLength="68.7695" x="315.15" y="247.9951">Logueado</text></g><g id="ExplorandoDestinos"><rect fill="#F1F1F1" height="50" rx="12.5" ry="12.5" style="stroke:#181818;stroke-width:0.5;" width="159.9316" x="269.65" y="357"/><line style="stroke:#181818;stroke-width:0.5;" x1="269.65" x2="429.5816" y1="383.2969" y2="383.2969"/><text fill="#000000" font-family="sans-serif" font-size="14" lengthAdjust="spacing" textLength="139.9316" x="279.65" y="374.9951">ExplorandoDestinos</text></g><g id="VerMapa"><rect fill="#F1F1F1" height="50" rx="12.5" ry="12.5" style="stroke:#181818;stroke-width:0.5;" width="82.0703" x="155.65" y="484"/><line style="stroke:#181818;stroke-width:0.5;" x1="155.65" x2="237.7203" y1="510.2969" y2="510.2969"/><text fill="#000000" font-family="sans-serif" font-size="14" lengthAdjust="spacing" textLength="62.0703" x="165.65" y="501.9951">VerMapa</text></g><g id="SeleccionandoHorario"><rect fill="#F1F1F1" height="50" rx="12.5" ry="12.5" style="stroke:#181818;stroke-width:0.5;" width="173.2686" x="472.15" y="484"/><line style="stroke:#181818;stroke-width:0.5;" x1="472.15" x2="645.4186" y1="510.2969" y2="510.2969"/><text fill="#000000" font-family="sans-serif" font-size="14" lengthAdjust="spacing" textLength="153.2686" x="482.15" y="501.9951">SeleccionandoHorario</text></g><g id="Asistida"><rect fill="#F1F1F1" height="50" rx="12.5" ry="12.5" style="stroke:#181818;stroke-width:0.5;" width="74.8994" x="521.15" y="611"/><line style="stroke:#181818;stroke-width:0.5;" x1="521.15" x2="596.0494" y1="637.2969" y2="637.2969"/><text fill="#000000" font-family="sans-serif" font-size="14" lengthAdjust="spacing" textLength="54.8994" x="531.15" y="628.9951">Asistida</text></g><ellipse cx="127.65" cy="255" fill="none" rx="11" ry="11" style="stroke:#222222;stroke-width:1;"/><ellipse cx="127.65" cy="255" fill="#222222" rx="6" ry="6" style="stroke:#222222;stroke-width:1;"/><!--link *start* to Deslogueado--><g class="link" data-entity-1=".start." data-entity-2="Deslogueado" data-source-line="5" data-uid="lnk4" id="link_.start._Deslogueado"><path d="M349.65,26 C349.65,42.63 349.65,72.66 349.65,96.87" fill="none" id="*start*-to-Deslogueado" style="stroke:#181818;stroke-width:1;"/><polygon fill="#181818" points="349.65,102.87,353.65,93.87,349.65,97.87,345.65,93.87,349.65,102.87" style="stroke:#181818;stroke-width:1;"/><text fill="#000000" font-family="sans-serif" font-size="13" lengthAdjust="spacing" textLength="190.0742" x="350.65" y="69.0669">Usuario no ha iniciado sesi&#243;n</text></g><!--link Deslogueado to Logueado--><g class="link" data-entity-1="Deslogueado" data-entity-2="Logueado" data-source-line="7" data-uid="lnk6" id="link_Deslogueado_Logueado"><path d="M349.65,153.1 C349.65,175.24 349.65,201.86 349.65,223.97" fill="none" id="Deslogueado-to-Logueado" style="stroke:#181818;stroke-width:1;"/><polygon fill="#181818" points="349.65,229.97,353.65,220.97,349.65,224.97,345.65,220.97,349.65,229.97" style="stroke:#181818;stroke-width:1;"/><text fill="#000000" font-family="sans-serif" font-size="13" lengthAdjust="spacing" textLength="120.688" x="350.65" y="196.0669">Usuario hace login</text></g><!--link Logueado to ExplorandoDestinos--><g class="link" data-entity-1="Logueado" data-entity-2="ExplorandoDestinos" data-source-line="8" data-uid="lnk8" id="link_Logueado_ExplorandoDestinos"><path d="M349.65,280.1 C349.65,302.24 349.65,328.86 349.65,350.97" fill="none" id="Logueado-to-ExplorandoDestinos" style="stroke:#181818;stroke-width:1;"/><polygon fill="#181818" points="349.65,356.97,353.65,347.97,349.65,351.97,345.65,347.97,349.65,356.97" style="stroke:#181818;stroke-width:1;"/><text fill="#000000" font-family="sans-serif" font-size="13" lengthAdjust="spacing" textLength="280.3062" x="350.65" y="323.0669">Usuario ve lista de destinos recomendados</text></g><!--link ExplorandoDestinos to VerMapa--><g class="link" data-entity-1="ExplorandoDestinos" data-entity-2="VerMapa" data-source-line="10" data-uid="lnk10" id="link_ExplorandoDestinos_VerMapa"><path d="M269.37,385.69 C187.75,390.3 69.34,402.87 40.65,437 C6,478.23 92.378,495.8928 149.448,503.1528" fill="none" id="ExplorandoDestinos-to-VerMapa" style="stroke:#181818;stroke-width:1;"/><polygon fill="#181818" points="155.4,503.91,146.9767,498.8062,150.44,503.279,145.9672,506.7423,155.4,503.91" style="stroke:#181818;stroke-width:1;"/><text fill="#000000" font-family="sans-serif" font-size="13" lengthAdjust="spacing" textLength="264.3164" x="41.65" y="450.0669">Usuario decide ver ubicaci&#243;n del destino</text></g><!--link VerMapa to ExplorandoDestinos--><g class="link" data-entity-1="VerMapa" data-entity-2="ExplorandoDestinos" data-source-line="11" data-uid="lnk11" id="link_VerMapa_ExplorandoDestinos"><path d="M237.8,495.62 C261.3,486.93 290.08,473.37 310.65,454 C324.37,441.08 332.0407,427.7424 338.5007,412.7124" fill="none" id="VerMapa-to-ExplorandoDestinos" style="stroke:#181818;stroke-width:1;"/><polygon fill="#181818" points="340.87,407.2,333.6412,413.8891,338.8956,411.7937,340.991,417.0481,340.87,407.2" style="stroke:#181818;stroke-width:1;"/><text fill="#000000" font-family="sans-serif" font-size="13" lengthAdjust="spacing" textLength="167.1655" x="325.65" y="450.0669">Usuario vuelve a explorar</text></g><!--link ExplorandoDestinos to SeleccionandoHorario--><g class="link" data-entity-1="ExplorandoDestinos" data-entity-2="SeleccionandoHorario" data-source-line="13" data-uid="lnk13" id="link_ExplorandoDestinos_SeleccionandoHorario"><path d="M429.83,402.32 C454.28,410.54 480.31,421.83 501.65,437 C519.04,449.36 530.6058,463.4417 540.8058,478.7017" fill="none" id="ExplorandoDestinos-to-SeleccionandoHorario" style="stroke:#181818;stroke-width:1;"/><polygon fill="#181818" points="544.14,483.69,542.4642,473.9848,541.3615,479.5331,535.8131,478.4304,544.14,483.69" style="stroke:#181818;stroke-width:1;"/><text fill="#000000" font-family="sans-serif" font-size="13" lengthAdjust="spacing" textLength="391.2632" x="520.65" y="450.0669">Usuario selecciona fecha y horario de una reserva existente</text></g><!--link SeleccionandoHorario to Asistida--><g class="link" data-entity-1="SeleccionandoHorario" data-entity-2="Asistida" data-source-line="14" data-uid="lnk15" id="link_SeleccionandoHorario_Asistida"><path d="M558.65,534.1 C558.65,556.24 558.65,582.86 558.65,604.97" fill="none" id="SeleccionandoHorario-to-Asistida" style="stroke:#181818;stroke-width:1;"/><polygon fill="#181818" points="558.65,610.97,562.65,601.97,558.65,605.97,554.65,601.97,558.65,610.97" style="stroke:#181818;stroke-width:1;"/><text fill="#000000" font-family="sans-serif" font-size="13" lengthAdjust="spacing" textLength="170.5488" x="559.65" y="577.0669">Usuario asiste al recorrido</text></g><!--reverse link *end* to Logueado--><g class="link" data-entity-1=".end." data-entity-2="Logueado" data-source-line="16" data-uid="lnk18" id="link_.end._Logueado"><path d="M144.66,255 C174.49,255 252.18,255 304.75,255" fill="none" id="*end*-backto-Logueado" style="stroke:#181818;stroke-width:1;"/><polygon fill="#181818" points="138.66,255,147.66,259,143.66,255,147.66,251,138.66,255" style="stroke:#181818;stroke-width:1;"/><text fill="#000000" font-family="sans-serif" font-size="13" lengthAdjust="spacing" textLength="130.127" x="156.9" y="248.0669">Usuario hace logout</text></g><!--SRC=[XP6nQWCn38PtFuMsGE5Ue9H28O4CwHJIfNHGRVKYSEnWdO_skRfrpOjLIdh5q3JnA7t_xr_I3BgBpyrWpjWNt244WeKC639qi6OPI6j2_U4hmNAZu1Kdztppeimzp4bYxYkPqorif6BX32d35e4JUxQ6aF3XCpdNqgPU_PLkqHCenCcjMdJnle-vO0fPJGPEMHhHg18TuZXMcDg5VDvH2keWpftHc-qJbKVSO-CLoBFQZ5IWlh97Rz6r6YTdDscknweKDHe2dQZoRumrHVAUSxBEqb1kboA_RNWZhwlzWEqFf56hbWi9bT5-icEcWTnPI_lhGHJXqCwCLjAWyRYqKZZaqudlkkxIaN8TlW40]--></g></svg>