<svg xmlns="http://www.w3.org/2000/svg" width="750" height="378" xmlns:xlink="http://www.w3.org/1999/xlink" joint-selector="svg" id="v-2" class="waiting"><defs joint-selector="defs" class="waiting"><marker id="v-21429980022" orient="auto" overflow="visible" markerUnits="userSpaceOnUse" class="waiting"><path id="v-185" stroke="black" fill="none" transform="rotate(180)" d="m 10,-6 l -10,6 10,6" stroke-width="1.2" class="waiting"/></marker><marker id="v-2-933205445" orient="auto" overflow="visible" markerUnits="userSpaceOnUse" class="waiting"><path id="v-203" stroke="black" fill="black" transform="rotate(180)" d="m 12,-6 l -12,6 12,6 z" stroke-width="1.2" class="waiting"/></marker><marker id="v-2688321182" orient="auto" overflow="visible" markerUnits="userSpaceOnUse" class="waiting"><path id="v-488" stroke="black" fill="black" transform="rotate(180)" d="m 1, 0         a 4,4 0 1,0 8,0         a 4,4 0 1,0 -8,0" class="waiting"/></marker></defs><g joint-selector="layers" class="joint-layers waiting" transform="matrix(1,0,0,1,-59,-14)"><g joint-selector="back" class="joint-back-layer waiting"/><g joint-selector="cells" class="joint-cells-layer joint-viewport waiting"><g model-id="25c0e1fe-be28-4b76-b076-bcfec5cece95" data-type="Container" id="j_90" class="joint-cell joint-type-container joint-element joint-theme-default waiting" transform="translate(471,44)"><g id="v-559" class="waiting"><rect class="boundary waiting" id="v-562" fill="rgb(242,242,242)" height="120" rx="100" ry="40" stroke="black" stroke-dasharray="10,5,4,4" stroke-width="2" width="200" display="none"/><circle class="element actorSymbol waiting" id="v-560" cx="40" cy="40" fill="rgb(205,254,205)" r="40" stroke="black" stroke-width="2" transform="translate(-20, -20)"/><path class="actorDecorator waiting" id="v-563" d="m -11 -5 62 0" fill="none" stroke="black" stroke-width="1.5"/><text class="content waiting" id="v-561" font-size="12" xml:space="preserve" y="0.8em" fill="#000000" font-family="Arial, helvetica, sans-serif" text-anchor="middle" transform="matrix(1,0,0,1,20,14.4)"><tspan dy="0" class="v-line waiting">Dueño</tspan></text></g></g><g model-id="5976890a-025e-4432-8a5a-a96c70231b93" data-type="Container" id="j_89" class="joint-cell joint-type-container joint-element joint-theme-default waiting" transform="translate(89,241)"><g id="v-549" class="waiting"><rect class="boundary waiting" id="v-552" fill="rgb(242,242,242)" height="120" rx="100" ry="40" stroke="black" stroke-dasharray="10,5,4,4" stroke-width="2" width="200" display="none"/><circle class="element actorSymbol waiting" id="v-550" cx="40" cy="40" fill="rgb(205,254,205)" r="40" stroke="black" stroke-width="2" transform="translate(-20, -20)"/><path class="waiting"/><text class="content waiting" id="v-551" font-size="12" xml:space="preserve" y="0.8em" fill="#000000" font-family="Arial, helvetica, sans-serif" text-anchor="middle" transform="matrix(1,0,0,1,20,14.4)"><tspan dy="0" class="v-line waiting">Cliente/s</tspan></text></g></g><g model-id="5576e716-4a80-41d2-916d-e06f4d1db089" data-type="Container" id="j_88" class="joint-cell joint-type-container joint-element joint-theme-default waiting" transform="translate(390,267)"><g id="v-538" class="waiting"><rect class="boundary waiting" id="v-541" fill="rgb(242,242,242)" height="120" rx="100" ry="40" stroke="black" stroke-dasharray="10,5,4,4" stroke-width="2" width="200" display="none" style=""/><circle class="element actorSymbol waiting" id="v-539" cx="40" cy="40" fill="rgb(205,254,205)" r="40" stroke="black" stroke-width="2" transform="translate(-20, -20)" style=""/><path class="actorDecorator waiting" id="v-542" d="m -11 -5 62 0" fill="none" stroke="black" stroke-width="1.5" style=""/><text class="content waiting" id="v-540" font-size="12" xml:space="preserve" y="0.8em" fill="#000000" font-family="Arial, helvetica, sans-serif" text-anchor="middle" transform="matrix(1,0,0,1,20,8.4)"><tspan dy="0" class="v-line waiting">ChileXperien</tspan><tspan dy="1em" x="0" class="v-line waiting">ce</tspan></text></g></g><g model-id="272ab69b-5ea7-40ba-bcef-0276473c68a6" data-type="Container" id="j_87" class="joint-cell joint-type-container joint-element joint-theme-default waiting" transform="translate(739,250)"><g id="v-527" class="waiting"><rect class="boundary waiting" id="v-530" fill="rgb(242,242,242)" height="120" rx="100" ry="40" stroke="black" stroke-dasharray="10,5,4,4" stroke-width="2" width="200" display="none"/><circle class="element actorSymbol waiting" id="v-528" cx="40" cy="40" fill="rgb(205,254,205)" r="40" stroke="black" stroke-width="2" transform="translate(-20, -20)"/><path class="actorDecorator waiting" id="v-531" d="m -11 45 q 30 15 62 0" fill="none" stroke="black" stroke-width="1.5"/><text class="content waiting" id="v-529" font-size="12" xml:space="preserve" y="0.8em" fill="#000000" font-family="Arial, helvetica, sans-serif" text-anchor="middle" transform="matrix(1,0,0,1,20,14.4)"><tspan dy="0" class="v-line waiting">Admin</tspan></text></g></g><g model-id="d68d05e7-1e6a-4b1b-a972-9a93d3299a1d" data-type="DependencyLink" id="j_105" class="joint-cell joint-type-dependencylink joint-link joint-theme-default waiting"><path joint-selector="connection-wrap" id="v-638" fill="none" stroke="rgba(190, 190, 190, 0)" stroke-linecap="round" stroke-width="30" d="M 298.87 330.15 L 370 302.53" class="c-connection-wrap waiting"/><path joint-selector="line" id="v-637" fill="none" stroke="black" stroke-width="1" d="M 298.87 330.15 L 370 302.53" class="waiting"/><path joint-selector="label" id="v-639" d="m 0,-10 l 0,20 4,0 c 10,0, 10 -20, 0,-20 l -4,0" fill="white" stroke="black" stroke-width="2" transform="matrix(0.9321890230677146,-0.3619718570166194,0.3619718570166194,0.9321890230677146,334.4,316.3)" class="waiting"/></g><g model-id="249b2526-113e-4a79-a0d7-5a5072c14025" data-type="DependencyLink" id="j_104" class="joint-cell joint-type-dependencylink joint-link joint-theme-default waiting"><path joint-selector="connection-wrap" class="c-connection-wrap waiting" id="v-635" fill="none" stroke="transparent" stroke-linecap="round" stroke-width="20" d="M 149 284.83 L 222.87 328.83"/><path joint-selector="line" id="v-634" fill="none" stroke="black" stroke-width="1" d="M 149 284.83 L 222.87 328.83" class="waiting"/><path joint-selector="label" id="v-636" d="m 0,-10 l 0,20 4,0 c 10,0, 10 -20, 0,-20 l -4,0" fill="white" stroke="black" stroke-width="2" transform="matrix(0.8591407045934807,0.5117394353678614,-0.5117394353678614,0.8591407045934807,185.9,306.8)" class="waiting"/></g><g model-id="4fbb9f4b-7b81-4dfc-920f-d6d06c9d50b8" data-type="DependencyLink" id="j_102" class="joint-cell joint-type-dependencylink joint-link joint-theme-default waiting"><path joint-selector="connection-wrap" class="c-connection-wrap waiting" id="v-624" fill="none" stroke="transparent" stroke-linecap="round" stroke-width="20" d="M 205.32 215 L 149 241.9"/><path joint-selector="line" id="v-623" fill="none" stroke="black" stroke-width="1" d="M 205.32 215 L 149 241.9" class="waiting"/><path joint-selector="label" id="v-625" d="m 0,-10 l 0,20 4,0 c 10,0, 10 -20, 0,-20 l -4,0" fill="white" stroke="black" stroke-width="2" transform="matrix(-0.9023564261493993,0.43099058016026726,-0.43099058016026726,-0.9023564261493993,177.2,228.4)" class="waiting"/></g><g model-id="3f4c5a9b-c3ed-4f1a-983d-643484909bca" data-type="DependencyLink" id="j_101" class="joint-cell joint-type-dependencylink joint-link joint-theme-default waiting"><path joint-selector="connection-wrap" class="c-connection-wrap waiting" id="v-621" fill="none" stroke="transparent" stroke-linecap="round" stroke-width="20" d="M 370 265.44 L 277.64 215.67"/><path joint-selector="line" id="v-620" fill="none" stroke="black" stroke-width="1" d="M 370 265.44 L 277.64 215.67" class="waiting"/><path joint-selector="label" id="v-622" d="m 0,-10 l 0,20 4,0 c 10,0, 10 -20, 0,-20 l -4,0" fill="white" stroke="black" stroke-width="2" transform="matrix(-0.8803211001539806,-0.4743782885247651,0.4743782885247651,-0.8803211001539806,323.8,240.6)" class="waiting"/></g><g model-id="f1c983a2-8378-4d97-9e6e-3377b8589d18" data-type="DependencyLink" id="j_99" class="joint-cell joint-type-dependencylink joint-link joint-theme-default waiting"><path joint-selector="connection-wrap" id="v-610" fill="none" stroke="transparent" stroke-linecap="round" stroke-width="20" d="M 445.61 184.17 L 423.85 247" class="c-connection-wrap waiting"/><path joint-selector="line" id="v-609" fill="none" stroke="black" stroke-width="1" d="M 445.61 184.17 L 423.85 247" class="waiting"/><path joint-selector="label" id="v-611" d="m 0,-10 l 0,20 4,0 c 10,0, 10 -20, 0,-20 l -4,0" fill="white" stroke="black" stroke-width="2" transform="matrix(-0.3272604031974095,0.944934192681728,-0.944934192681728,-0.3272604031974095,434.7,215.6)" class="waiting"/></g><g model-id="cdba4e69-14cd-481d-8a8e-8d1adb60da8b" data-type="DependencyLink" id="j_98" class="joint-cell joint-type-dependencylink joint-link joint-theme-default waiting"><path joint-selector="connection-wrap" class="c-connection-wrap waiting" id="v-607" fill="none" stroke="transparent" stroke-linecap="round" stroke-width="20" d="M 475.74 104 L 454.83 158.83"/><path joint-selector="line" id="v-606" fill="none" stroke="black" stroke-width="1" d="M 475.74 104 L 454.83 158.83" class="waiting"/><path joint-selector="label" id="v-608" d="m 0,-10 l 0,20 4,0 c 10,0, 10 -20, 0,-20 l -4,0" fill="white" stroke="black" stroke-width="2" transform="matrix(-0.35632835109267114,0.9343608008727561,-0.9343608008727561,-0.35632835109267114,465.3,131.4)" class="waiting"/></g><g model-id="8cb42fc2-a931-4e55-85fd-03f5a13081ea" data-type="DependencyLink" id="j_96" class="joint-cell joint-type-dependencylink joint-link joint-theme-default waiting"><path joint-selector="connection-wrap" class="c-connection-wrap waiting" id="v-596" fill="none" stroke="transparent" stroke-linecap="round" stroke-width="20" d="M 614.61 151.33 C 581.7725 127.67000000000002 548.9350000000001 104.01 535 94 C 521.0649999999999 83.99 526.0325 87.63 531 91.27"/><path joint-selector="line" id="v-595" fill="none" stroke="black" stroke-width="1" d="M 614.61 151.33 C 581.7725 127.67000000000002 548.9350000000001 104.01 535 94 C 521.0649999999999 83.99 526.0325 87.63 531 91.27" class="waiting"/><path joint-selector="label" id="v-597" d="m 0,-10 l 0,20 4,0 c 10,0, 10 -20, 0,-20 l -4,0" fill="white" stroke="black" stroke-width="2" transform="matrix(-0.8114392150278058,-0.584436823202524,0.584436823202524,-0.8114392150278058,567.7,117.5)" class="waiting"/></g><g model-id="5d1acf38-22f7-4576-a144-60ed1e572033" data-type="DependencyLink" id="j_95" class="joint-cell joint-type-dependencylink joint-link joint-theme-default waiting"><path joint-selector="connection-wrap" class="c-connection-wrap waiting" id="v-593" fill="none" stroke="transparent" stroke-linecap="round" stroke-width="20" d="M 719 235 C 724.9424999999999 239.86083333333335 730.8849999999999 244.72166666666666 719 235 C 707.1150000000001 225.27833333333334 677.4025000000001 200.97416666666666 647.69 176.67"/><path joint-selector="line" id="v-592" fill="none" stroke="black" stroke-width="1" d="M 719 235 C 724.9424999999999 239.86083333333335 730.8849999999999 244.72166666666666 719 235 C 707.1150000000001 225.27833333333334 677.4025000000001 200.97416666666666 647.69 176.67" class="waiting"/><path joint-selector="label" id="v-594" d="m 0,-10 l 0,20 4,0 c 10,0, 10 -20, 0,-20 l -4,0" fill="white" stroke="black" stroke-width="2" transform="matrix(-0.7740346270160593,-0.6331432667099208,0.6331432667099208,-0.7740346270160593,690,211.3)" class="waiting"/></g><g model-id="90e9a78f-2126-4cf4-942a-287e808cdd7f" data-type="DependencyLink" id="j_93" class="joint-cell joint-type-dependencylink joint-link joint-theme-default waiting"><path joint-selector="connection-wrap" class="c-connection-wrap waiting" id="v-582" fill="none" stroke="transparent" stroke-linecap="round" stroke-width="20" d="M 590.34 275.65 L 719 271.34"/><path joint-selector="line" id="v-581" fill="none" stroke="black" stroke-width="1" d="M 590.34 275.65 L 719 271.34" class="waiting"/><path joint-selector="label" id="v-583" d="m 0,-10 l 0,20 4,0 c 10,0, 10 -20, 0,-20 l -4,0" fill="white" stroke="black" stroke-width="2" transform="matrix(0.9994393766181687,-0.03348032952475597,0.03348032952475597,0.9994393766181687,654.7,273.5)" class="waiting"/></g><g model-id="1cdd049f-c7f9-4399-bb63-0599fbd2d51d" data-type="DependencyLink" id="j_92" class="joint-cell joint-type-dependencylink joint-link joint-theme-default waiting"><path joint-selector="connection-wrap" class="c-connection-wrap waiting" id="v-579" fill="none" stroke="transparent" stroke-linecap="round" stroke-width="20" d="M 450 284.29 L 539.67 278.22"/><path joint-selector="line" id="v-578" fill="none" stroke="black" stroke-width="1" d="M 450 284.29 L 539.67 278.22" class="waiting"/><path joint-selector="label" id="v-580" d="m 0,-10 l 0,20 4,0 c 10,0, 10 -20, 0,-20 l -4,0" fill="white" stroke="black" stroke-width="2" transform="matrix(0.9977167038739557,-0.06753798050644734,0.06753798050644734,0.9977167038739557,494.8,281.3)" class="waiting"/></g><g model-id="9c28fcc5-0fa4-4abd-b434-fbc2eef898bf" data-type="Goal" id="j_91" class="joint-cell joint-type-goal joint-element joint-theme-default waiting" fill="#ffffff" stroke="none" transform="translate(520,259)"><g class="scalable waiting" transform="scale(0.6923076923076923,1.1666666666666667)"><rect class="element waiting" id="v-570" fill="rgb(205,254,205)" height="30" rx="20" stroke="black" stroke-width="2" vector-effect="non-scaling-stroke" width="130"/></g><text class="content waiting" id="v-571" font-size="12" xml:space="preserve" y="0.8em" font-weight="bold" fill="#000000" text-anchor="middle" font-family="Arial, helvetica, sans-serif" transform="matrix(1,0,0,1,45,5.9)"><tspan dy="0" class="v-line waiting">Notificar</tspan><tspan dy="1em" x="0" class="v-line waiting">Solicitud</tspan></text></g><g model-id="50a51aba-14cb-468a-9393-fbb2bef9b42d" data-type="Goal" id="j_94" class="joint-cell joint-type-goal joint-element joint-theme-default waiting" fill="#ffffff" stroke="none" transform="translate(582,145)"><g class="scalable waiting" transform="scale(0.7727884145883414,1.2675000508626302)"><rect class="element waiting" id="v-584" fill="rgb(205,254,205)" height="30" rx="20" stroke="black" stroke-width="2" vector-effect="non-scaling-stroke" width="130"/></g><text class="content waiting" id="v-585" font-size="12" xml:space="preserve" y="0.8em" font-weight="bold" fill="#000000" text-anchor="middle" font-family="Arial, helvetica, sans-serif" transform="matrix(1,0,0,1,50.2,7.4)"><tspan dy="0" class="v-line waiting">Informar Sobre</tspan><tspan dy="1em" x="0" class="v-line waiting">Solicitud</tspan></text></g><g model-id="7afba707-05a0-4288-8978-eb93dd2e5f97" data-type="Goal" id="j_97" class="joint-cell joint-type-goal joint-element joint-theme-default waiting" fill="#ffffff" stroke="none" transform="translate(397,149)"><g class="scalable waiting" transform="scale(0.8150961068960336,1.5008333841959636)"><rect class="element waiting" id="v-598" fill="rgb(205,254,205)" height="30" rx="20" stroke="black" stroke-width="2" vector-effect="non-scaling-stroke" width="130"/></g><text class="content waiting" id="v-599" font-size="12" xml:space="preserve" y="0.8em" font-weight="bold" fill="#000000" text-anchor="middle" font-family="Arial, helvetica, sans-serif" transform="matrix(1,0,0,1,53,10.9)"><tspan dy="0" class="v-line waiting">Informar Estado</tspan><tspan dy="1em" x="0" class="v-line waiting">al Sistema</tspan></text></g><g model-id="3dfbefbf-4750-4101-a8be-c45f8c3624b0" data-type="Goal" id="j_100" class="joint-cell joint-type-goal joint-element joint-theme-default waiting" fill="#ffffff" stroke="none" transform="translate(193,173)"><g class="scalable waiting" transform="scale(0.7689422607421875,1.6008333841959634)"><rect class="element waiting" id="v-612" fill="rgb(205,254,205)" height="30" rx="20" stroke="black" stroke-width="2" vector-effect="non-scaling-stroke" width="130"/></g><text class="content waiting" id="v-613" font-size="12" xml:space="preserve" y="0.8em" font-weight="bold" fill="#000000" text-anchor="middle" font-family="Arial, helvetica, sans-serif" transform="matrix(1,0,0,1,50,6.4)"><tspan dy="0" class="v-line waiting">Informar</tspan><tspan dy="1em" x="0" class="v-line waiting">Resultado de</tspan><tspan dy="1em" x="0" class="v-line waiting">Solicitud</tspan></text></g><g model-id="72a653a2-c192-40bd-a279-a4a154b6c0d2" data-type="Task" id="j_103" class="joint-cell joint-type-task joint-element joint-theme-default waiting" fill="#ffffff" stroke="none" transform="translate(198,313)"><g class="scalable waiting" transform="scale(0.8646634615384615,1.916087680392795)"><polygon class="element waiting" id="v-626" fill="rgb(205,254,205)" height="36" points="0,18 15,0 115,0 130,18 115,36 15,36" stroke="black" stroke-width="2" vector-effect="non-scaling-stroke" width="130"/></g><text class="content waiting" id="v-627" font-size="12" xml:space="preserve" y="0.8em" font-weight="bold" text-anchor="middle" fill="#000000" font-family="Arial, helvetica, sans-serif" transform="matrix(1,0,0,1,56.2,16.9)"><tspan dy="0" class="v-line waiting">Solicita</tspan><tspan dy="1em" x="0" class="v-line waiting">Información del</tspan><tspan dy="1em" x="0" class="v-line waiting">Restaurant</tspan></text></g></g><g joint-selector="front" class="joint-front-layer waiting"/><g joint-selector="tools" class="joint-tools-layer waiting"><g class="joint-tools joint-theme-default waiting"><g class="joint-tool joint-theme-default waiting" data-tool-name="vertices" model-id="1cdd049f-c7f9-4399-bb63-0599fbd2d51d" style="display: none;"><path fill="none" stroke="transparent" stroke-width="10" cursor="cell" joint-selector="connection" d="M 450 284.29 L 539.67 278.22" class="joint-vertices-path waiting"/></g></g><g class="joint-tools joint-theme-default waiting"><g class="joint-tool joint-theme-default waiting" data-tool-name="vertices" model-id="90e9a78f-2126-4cf4-942a-287e808cdd7f" style="display: none;"><path fill="none" stroke="transparent" stroke-width="10" cursor="cell" joint-selector="connection" d="M 590.34 275.65 L 719 271.34" class="joint-vertices-path waiting"/></g></g><g class="joint-tools joint-theme-default waiting"><g class="joint-tool joint-theme-default waiting" data-tool-name="vertices" model-id="5d1acf38-22f7-4576-a144-60ed1e572033" style="display: none;"><path fill="none" stroke="transparent" stroke-width="10" cursor="cell" joint-selector="connection" d="M 719 236.56 L 647.35 176.67" class="joint-vertices-path waiting"/></g></g><g class="joint-tools joint-theme-default waiting"><g class="joint-tool joint-theme-default waiting" data-tool-name="vertices" model-id="8cb42fc2-a931-4e55-85fd-03f5a13081ea" style="display: none;"><path fill="none" stroke="transparent" stroke-width="10" cursor="cell" joint-selector="connection" d="M 614.31 151.33 L 531 92.33" class="joint-vertices-path waiting"/></g></g><g class="joint-tools joint-theme-default waiting"><g class="joint-tool joint-theme-default waiting" data-tool-name="vertices" model-id="cdba4e69-14cd-481d-8a8e-8d1adb60da8b" style="display: none;"><path fill="none" stroke="transparent" stroke-width="10" cursor="cell" joint-selector="connection" d="M 475.74 104 L 454.83 158.83" class="joint-vertices-path waiting"/></g></g><g class="joint-tools joint-theme-default waiting"><g class="joint-tool joint-theme-default waiting" data-tool-name="vertices" model-id="f1c983a2-8378-4d97-9e6e-3377b8589d18" style="display: none;"><path fill="none" stroke="transparent" stroke-width="10" cursor="cell" joint-selector="connection" d="M 445.61 184.17 L 423.85 247" class="joint-vertices-path waiting"/></g></g><g class="joint-tools joint-theme-default waiting"><g class="joint-tool joint-theme-default waiting" data-tool-name="vertices" model-id="3f4c5a9b-c3ed-4f1a-983d-643484909bca" style="display: none;"><path fill="none" stroke="transparent" stroke-width="10" cursor="cell" joint-selector="connection" d="M 370 265.44 L 277.64 215.67" class="joint-vertices-path waiting"/></g></g><g class="joint-tools joint-theme-default waiting"><g class="joint-tool joint-theme-default waiting" data-tool-name="vertices" model-id="4fbb9f4b-7b81-4dfc-920f-d6d06c9d50b8" style="display: none;"><path fill="none" stroke="transparent" stroke-width="10" cursor="cell" joint-selector="connection" d="M 205.32 215 L 149 241.9" class="joint-vertices-path waiting"/></g></g><g class="joint-tools joint-theme-default waiting"><g class="joint-tool joint-theme-default waiting" data-tool-name="vertices" model-id="249b2526-113e-4a79-a0d7-5a5072c14025" style="display: none;"><path fill="none" stroke="transparent" stroke-width="10" cursor="cell" joint-selector="connection" d="M 149 284.83 L 222.87 328.83" class="joint-vertices-path waiting"/></g></g><g class="joint-tools joint-theme-default waiting"><g class="joint-tool joint-theme-default waiting" data-tool-name="vertices" model-id="d68d05e7-1e6a-4b1b-a972-9a93d3299a1d" style="display: none;"><path fill="none" stroke="transparent" stroke-width="10" cursor="cell" joint-selector="connection" d="M 298.87 330.15 L 370 302.53" class="joint-vertices-path waiting"/></g></g></g></g></svg>